# Blender v2.90.0 OBJ File: 'environment.blend'
# www.blender.org
mtllib trashcan-together.mtl
o TrashCan-Together_Cylinder.027
v 0.053892 -0.739905 0.379151
v -0.214208 -0.739905 0.268100
v -0.325259 -0.739905 -0.000000
v -0.214208 -0.739905 -0.268100
v 0.053892 -0.739905 -0.379151
v 0.321992 -0.739905 -0.268100
v 0.433042 -0.739905 0.000000
v 0.321992 -0.739905 0.268100
v 0.053892 0.354327 0.577275
v -0.354304 0.354327 0.408195
v -0.523384 0.354327 -0.000000
v -0.354304 0.354327 -0.408195
v 0.053892 0.354327 -0.577275
v 0.462087 0.354327 -0.408195
v 0.631167 0.354327 0.000000
v 0.462087 0.354327 0.408195
v -0.406898 0.438523 0.460789
v 0.053892 0.438523 0.651655
v 0.053892 0.343960 0.634533
v -0.597763 0.438523 -0.000000
v -0.406898 0.438523 -0.460789
v 0.053892 0.438523 -0.651655
v 0.514681 0.438523 -0.460789
v 0.705546 0.438523 0.000000
v 0.514681 0.438523 0.460789
v -0.394791 0.343960 0.448682
v -0.580641 0.343960 -0.000000
v -0.394791 0.343960 -0.448682
v 0.053892 0.343960 -0.634533
v 0.502574 0.343960 -0.448682
v 0.688424 0.343960 0.000000
v 0.502574 0.343960 0.448682
v -0.340972 0.537497 0.394864
v 0.053892 0.537497 0.558422
v -0.504530 0.537497 -0.000000
v -0.340972 0.537497 -0.394864
v 0.053892 0.537497 -0.558422
v 0.448756 0.537497 -0.394864
v 0.612314 0.537497 0.000000
v 0.448756 0.537497 0.394864
v -0.379009 0.527758 0.432901
v 0.486792 0.527758 0.432901
v 0.053892 0.527758 0.612214
v -0.558322 0.527758 -0.000000
v -0.379009 0.527758 -0.432901
v 0.053892 0.527758 -0.612214
v 0.486792 0.527758 -0.432901
v 0.666106 0.527758 0.000000
vt 0.125000 0.960227
vt 0.250000 0.960227
vt 0.250000 0.960227
vt 0.125000 0.960227
vt 0.000000 0.960227
vt 0.000000 0.960227
vt 0.875000 0.960227
vt 1.000000 0.960227
vt 1.000000 0.960227
vt 0.875000 0.960227
vt 0.750000 1.000000
vt 0.875000 1.000000
vt 0.875000 1.000000
vt 0.750000 1.000000
vt 0.750000 0.960227
vt 0.750000 0.960227
vt 0.500000 1.000000
vt 0.625000 1.000000
vt 0.625000 1.000000
vt 0.500000 1.000000
vt 0.250000 1.000000
vt 0.375000 1.000000
vt 0.375000 1.000000
vt 0.250000 1.000000
vt 0.000000 1.000000
vt 0.125000 1.000000
vt 0.125000 1.000000
vt 0.000000 1.000000
vt 0.750000 0.490000
vt 0.919706 0.419706
vt 0.990000 0.250000
vt 0.919706 0.080294
vt 0.750000 0.010000
vt 0.580294 0.080294
vt 0.510000 0.250000
vt 0.580294 0.419706
vt 0.125000 0.500000
vt 0.000000 0.500000
vt 0.250000 0.500000
vt 0.375000 0.500000
vt 0.375000 0.960227
vt 0.500000 0.500000
vt 0.500000 0.960227
vt 0.625000 0.500000
vt 0.625000 0.960227
vt 0.750000 0.500000
vt 0.875000 0.500000
vt 1.000000 0.500000
vt 1.000000 1.000000
vt 0.625000 0.960227
vt 0.500000 0.960227
vt 0.375000 0.960227
vt 1.000000 1.000000
vt 0.080294 0.080294
vt 0.010000 0.250000
vt 0.010000 0.250000
vt 0.080294 0.080294
vt 0.250000 0.490000
vt 0.419706 0.419706
vt 0.419706 0.419706
vt 0.250000 0.490000
vt 0.080294 0.419706
vt 0.250000 0.010000
vt 0.419706 0.080294
vt 0.490000 0.250000
vt 0.080294 0.419706
vt 0.419706 0.080294
vt 0.490000 0.250000
vt 0.250000 0.010000
vn -0.1777 -0.9813 -0.0736
vn -0.0736 -0.9813 -0.1777
vn 0.0736 -0.9813 -0.1777
vn -0.8553 0.3780 0.3543
vn 0.1777 -0.9813 -0.0736
vn -0.3543 0.3780 -0.8553
vn 0.8553 0.3780 -0.3543
vn 0.3543 0.3780 0.8553
vn 0.0000 -1.0000 -0.0000
vn 0.3774 -0.1650 0.9112
vn 0.9112 -0.1650 0.3774
vn 0.9112 -0.1650 -0.3774
vn 0.3774 -0.1650 -0.9112
vn -0.3774 -0.1650 -0.9112
vn -0.9112 -0.1650 -0.3774
vn -0.9112 -0.1650 0.3774
vn -0.3774 -0.1650 0.9112
vn -0.8553 0.3780 -0.3543
vn -0.1777 -0.9813 0.0736
vn 0.3543 0.3780 -0.8553
vn 0.8553 0.3780 0.3543
vn -0.0736 -0.9813 0.1777
vn 0.0736 -0.9813 0.1777
vn -0.3543 0.3780 0.8553
vn 0.1777 -0.9813 0.0736
vn 0.1777 0.9813 -0.0736
vn -0.0736 0.9813 0.1777
vn 0.0000 1.0000 0.0000
vn 0.0736 0.9813 0.1777
vn -0.1777 0.9813 -0.0736
vn -0.0736 0.9813 -0.1777
vn -0.1777 0.9813 0.0736
vn 0.1777 0.9813 0.0736
vn 0.0736 0.9813 -0.1777
usemtl ACUnity
s off
f 16/1/1 15/2/1 31/3/1 32/4/1
f 9/5/2 16/1/2 32/4/2 19/6/2
f 10/7/3 9/8/3 19/9/3 26/10/3
f 20/11/4 17/12/4 41/13/4 44/14/4
f 11/15/5 10/7/5 26/10/5 27/16/5
f 22/17/6 21/18/6 45/19/6 46/20/6
f 24/21/7 23/22/7 47/23/7 48/24/7
f 18/25/8 25/26/8 42/27/8 43/28/8
f 1/29/9 2/30/9 3/31/9 4/32/9 5/33/9 6/34/9 7/35/9 8/36/9
f 8/37/10 16/1/10 9/5/10 1/38/10
f 7/39/11 15/2/11 16/1/11 8/37/11
f 6/40/12 14/41/12 15/2/12 7/39/12
f 5/42/13 13/43/13 14/41/13 6/40/13
f 4/44/14 12/45/14 13/43/14 5/42/14
f 3/46/15 11/15/15 12/45/15 4/44/15
f 2/47/16 10/7/16 11/15/16 3/46/16
f 1/48/17 9/8/17 10/7/17 2/47/17
f 19/9/17 18/49/17 17/12/17 26/10/17
f 26/10/16 17/12/16 20/11/16 27/16/16
f 27/16/15 20/11/15 21/18/15 28/50/15
f 28/50/14 21/18/14 22/17/14 29/51/14
f 29/51/13 22/17/13 23/22/13 30/52/13
f 30/52/12 23/22/12 24/21/12 31/3/12
f 31/3/11 24/21/11 25/26/11 32/4/11
f 32/4/10 25/26/10 18/25/10 19/6/10
f 21/18/18 20/11/18 44/14/18 45/19/18
f 15/2/19 14/41/19 30/52/19 31/3/19
f 23/22/20 22/17/20 46/20/20 47/23/20
f 25/26/21 24/21/21 48/24/21 42/27/21
f 14/41/22 13/43/22 29/51/22 30/52/22
f 13/43/23 12/45/23 28/50/23 29/51/23
f 17/12/24 18/49/24 43/53/24 41/13/24
f 12/45/25 11/15/25 27/16/25 28/50/25
f 38/54/26 39/55/26 48/56/26 47/57/26
f 34/58/27 33/59/27 41/60/27 43/61/27
f 33/59/28 34/58/28 40/62/28 39/55/28 38/54/28 37/63/28 36/64/28 35/65/28
f 40/62/29 34/58/29 43/61/29 42/66/29
f 35/65/30 36/64/30 45/67/30 44/68/30
f 36/64/31 37/63/31 46/69/31 45/67/31
f 33/59/32 35/65/32 44/68/32 41/60/32
f 39/55/33 40/62/33 42/66/33 48/56/33
f 37/63/34 38/54/34 47/57/34 46/69/34
o Cube.034_Cube.022
v 0.166785 0.590989 -0.021150
v 0.166785 0.623245 -0.021150
v 0.166785 0.590989 0.021150
v 0.166785 0.623245 0.021150
v -0.059001 0.590989 -0.021150
v -0.059001 0.623245 -0.021150
v -0.059001 0.590989 0.021150
v -0.059001 0.623245 0.021150
v -0.033739 0.590989 0.021150
v 0.141523 0.590989 0.021150
v 0.141523 0.623245 0.021150
v -0.033739 0.623245 0.021150
v 0.141523 0.590989 -0.021150
v -0.033739 0.590989 -0.021150
v -0.033739 0.623245 -0.021150
v 0.141523 0.623245 -0.021150
v 0.166785 0.524798 0.021150
v 0.166785 0.524798 -0.021150
v 0.141523 0.524798 0.021150
v -0.059001 0.524798 -0.021150
v -0.059001 0.524798 0.021150
v -0.033739 0.524798 -0.021150
v -0.033739 0.524798 0.021150
v 0.141523 0.524798 -0.021150
vt 0.375000 0.000000
vt 0.625000 0.000000
vt 0.625000 0.250000
vt 0.375000 0.250000
vt 0.375000 0.416667
vt 0.625000 0.416667
vt 0.625000 0.500000
vt 0.375000 0.500000
vt 0.625000 0.750000
vt 0.375000 0.750000
vt 0.375000 0.916667
vt 0.625000 0.916667
vt 0.625000 1.000000
vt 0.375000 1.000000
vt 0.375000 1.000000
vt 0.375000 0.916667
vt 0.791667 0.500000
vt 0.875000 0.500000
vt 0.875000 0.750000
vt 0.791667 0.750000
vt 0.708333 0.500000
vt 0.708333 0.750000
vt 0.375000 0.750000
vt 0.375000 0.500000
vt 0.208333 0.500000
vt 0.291667 0.500000
vt 0.291667 0.750000
vt 0.208333 0.750000
vt 0.625000 0.833333
vt 0.375000 0.833333
vt 0.625000 0.333333
vt 0.375000 0.333333
vt 0.291667 0.500000
vt 0.291667 0.750000
vt 0.125000 0.500000
vt 0.208333 0.500000
vt 0.208333 0.750000
vt 0.125000 0.750000
vt 0.375000 0.416667
vt 0.375000 0.833333
vt 0.375000 0.333333
vt 0.375000 0.250000
vt 0.375000 0.000000
vn 1.0000 0.0000 0.0000
vn 0.0000 0.0000 1.0000
vn -1.0000 0.0000 0.0000
vn 0.0000 0.0000 -1.0000
vn 0.0000 1.0000 0.0000
vn 0.0000 -1.0000 0.0000
usemtl ACUnity
s off
f 49/70/35 50/71/35 52/72/35 51/73/35
f 57/74/36 60/75/36 56/76/36 55/77/36
f 55/77/37 56/76/37 54/78/37 53/79/37
f 61/80/38 64/81/38 50/82/38 49/83/38
f 61/80/38 49/83/38 66/84/38 72/85/38
f 59/86/39 52/87/39 50/88/39 64/89/39
f 56/76/39 60/90/39 63/91/39 54/78/39
f 60/90/39 59/86/39 64/89/39 63/91/39
f 55/77/37 53/79/37 68/92/37 69/93/37
f 58/94/40 57/95/40 62/96/40 61/97/40
f 53/79/38 54/78/38 63/98/38 62/99/38
f 62/99/38 63/98/38 64/81/38 61/80/38
f 51/73/36 52/72/36 59/100/36 58/101/36
f 58/101/36 59/100/36 60/75/36 57/74/36
f 71/102/40 69/93/40 68/92/40 70/103/40
f 65/104/40 67/105/40 72/106/40 66/107/40
f 62/96/35 57/95/35 71/102/35 70/103/35
f 57/74/36 55/77/36 69/93/36 71/108/36
f 53/79/38 62/99/38 70/109/38 68/92/38
f 51/73/36 58/101/36 67/110/36 65/111/36
f 58/94/37 61/97/37 72/106/37 67/105/37
f 49/70/35 51/73/35 65/111/35 66/112/35
