# Blender v2.90.0 OBJ File: 'environment.blend'
# www.blender.org
mtllib trashbag.mtl
o TrashBag_Cube.050
v 13.309499 -0.403065 -0.125426
v 13.094806 0.381548 -0.032254
v 13.309499 -0.403065 0.125426
v 13.094806 0.381548 0.032254
v 12.806585 -0.372941 -0.125426
v 13.015059 0.381548 -0.032254
v 12.806585 -0.372941 0.125426
v 13.015059 0.381548 0.032254
v 12.973394 -0.460445 0.125426
v 13.106618 -0.460445 0.125426
v 13.068223 0.381548 0.032254
v 13.041641 0.381548 0.032254
v 13.106618 -0.460445 -0.125426
v 12.973394 -0.460445 -0.125426
v 13.041641 0.381548 -0.032254
v 13.068223 0.381548 -0.032254
v 13.380890 -0.175477 -0.254615
v 13.342999 -0.015311 -0.233020
v 13.342999 -0.015311 0.233020
v 13.380890 -0.175477 0.254615
v 12.766866 -0.015311 0.233020
v 12.740170 -0.191257 0.254615
v 12.766866 -0.015311 -0.233020
v 12.740170 -0.191257 -0.254615
v 12.958910 -0.015311 -0.233020
v 12.950011 -0.191257 -0.254615
v 13.150954 -0.015311 -0.233020
v 13.159853 -0.191257 -0.254615
v 13.150954 -0.015311 0.233020
v 13.159853 -0.191257 0.254615
v 12.958910 -0.015311 0.233020
v 12.950011 -0.191257 0.254615
v 13.342777 -0.278806 0.232841
v 12.767087 -0.278806 0.232841
v 12.767087 -0.278806 -0.232841
v 12.958984 -0.278806 -0.232841
v 13.150881 -0.278806 -0.232841
v 13.150881 -0.278806 0.232841
v 12.958984 -0.278806 0.232841
v 13.342777 -0.278806 -0.232841
v 13.313391 0.183119 -0.209070
v 13.313391 0.183119 0.209070
v 12.818864 0.183119 0.209070
v 12.818864 0.183119 -0.209070
v 12.968780 0.183119 -0.209070
v 13.141086 0.183119 -0.209070
v 13.141086 0.183119 0.209070
v 12.968780 0.183119 0.209070
v 13.094806 0.467330 -0.032254
v 13.094806 0.467330 0.032254
v 13.041641 0.467330 0.032254
v 13.015059 0.467330 0.032254
v 13.015059 0.467330 -0.032254
v 13.068223 0.467330 -0.032254
v 13.068223 0.467330 0.032254
v 13.041641 0.467330 -0.032254
v 13.062410 0.410603 -0.018148
v 13.047454 0.410603 -0.018148
v 13.032497 0.410603 0.018148
v 13.032497 0.410603 -0.018148
v 13.062410 0.410603 0.018148
v 13.047454 0.410603 0.018148
v 13.077368 0.410603 -0.018148
v 13.077368 0.410603 0.018148
vt 0.583333 0.000000
vt 0.625000 0.000000
vt 0.625000 0.250000
vt 0.583333 0.250000
vt 0.583333 0.416667
vt 0.625000 0.416667
vt 0.625000 0.500000
vt 0.583333 0.500000
vt 0.625000 0.750000
vt 0.583333 0.750000
vt 0.583333 0.916667
vt 0.625000 0.916667
vt 0.625000 1.000000
vt 0.583333 1.000000
vt 0.291667 0.500000
vt 0.375000 0.500000
vt 0.375000 0.750000
vt 0.291667 0.750000
vt 0.625000 0.416667
vt 0.625000 0.333333
vt 0.625000 0.333333
vt 0.625000 0.416667
vt 0.625000 0.750000
vt 0.625000 0.500000
vt 0.625000 0.500000
vt 0.625000 0.750000
vt 0.625000 0.916667
vt 0.625000 0.833333
vt 0.625000 0.833333
vt 0.625000 0.916667
vt 0.125000 0.500000
vt 0.208333 0.500000
vt 0.208333 0.750000
vt 0.125000 0.750000
vt 0.625000 0.833333
vt 0.583333 0.833333
vt 0.625000 0.333333
vt 0.583333 0.333333
vt 0.406362 0.333333
vt 0.458333 0.333333
vt 0.458333 0.416667
vt 0.406362 0.416667
vt 0.541667 0.333333
vt 0.541667 0.416667
vt 0.406362 0.250000
vt 0.458333 0.250000
vt 0.541667 0.250000
vt 0.406362 0.833333
vt 0.458333 0.833333
vt 0.458333 0.916667
vt 0.406362 0.916667
vt 0.541667 0.833333
vt 0.541667 0.916667
vt 0.406362 0.750000
vt 0.458333 0.750000
vt 0.541667 0.750000
vt 0.458333 1.000000
vt 0.406362 1.000000
vt 0.541667 1.000000
vt 0.406362 0.500000
vt 0.458333 0.500000
vt 0.541667 0.500000
vt 0.406362 0.000000
vt 0.458333 0.000000
vt 0.541667 0.000000
vt 0.375000 0.000000
vt 0.375000 0.250000
vt 0.375000 0.416667
vt 0.375000 0.916667
vt 0.375000 1.000000
vt 0.375000 0.833333
vt 0.375000 0.333333
vt 0.791667 0.500000
vt 0.875000 0.500000
vt 0.875000 0.750000
vt 0.791667 0.750000
vt 0.708333 0.500000
vt 0.708333 0.750000
vt 0.625000 0.250000
vt 0.625000 0.000000
vt 0.625000 0.000000
vt 0.625000 0.250000
vt 0.625000 1.000000
vt 0.625000 1.000000
vn 0.6721 0.7404 0.0000
vn 0.0000 0.6653 0.7466
vn -0.7111 0.7031 0.0000
vn 0.0000 0.6653 -0.7466
vn -0.4645 -0.8856 0.0000
vn 0.0000 -0.2413 0.9704
vn -0.9559 -0.2938 0.0000
vn 0.0000 -0.2413 -0.9704
vn 0.2722 -0.9623 0.0000
vn 0.0000 -1.0000 0.0000
vn 0.0000 -0.2414 0.9704
vn 0.0000 0.1218 0.9926
vn 0.0086 -0.2244 0.9745
vn -0.0048 0.1268 0.9919
vn 0.0000 -0.2414 -0.9704
vn 0.0000 0.1218 -0.9926
vn 0.0086 -0.2244 -0.9745
vn -0.0048 0.1268 -0.9919
vn -0.9558 -0.2939 0.0000
vn -0.9887 0.1500 0.0000
vn 0.9382 -0.3461 0.0000
vn 0.9731 0.2302 0.0000
vn 0.9660 -0.2587 0.0000
vn -0.1526 -0.6257 0.7650
vn -0.9221 -0.3869 0.0000
vn 0.0853 -0.5870 -0.8051
vn -0.1526 -0.6257 -0.7650
vn 0.0000 -0.5090 -0.8608
vn 0.0853 -0.5870 0.8051
vn 0.0000 -0.5090 0.8608
vn 0.0000 0.1198 0.9928
vn 0.0000 0.1198 -0.9928
vn -0.9673 0.2535 0.0000
vn 0.9890 0.1476 -0.0000
vn 0.0000 1.0000 0.0000
vn 0.9559 -0.2938 0.0000
vn 0.0000 0.4367 0.8996
vn 0.0000 0.4367 -0.8996
vn 0.8574 0.5146 0.0000
vn -0.8574 0.5146 0.0000
usemtl TrashBagColor
s off
f 41/1/1 2/2/1 4/3/1 42/4/1
f 48/5/2 12/6/2 8/7/2 43/8/2
f 43/8/3 8/7/3 6/9/3 44/10/3
f 46/11/4 16/12/4 2/13/4 41/14/4
f 9/15/5 7/16/5 5/17/5 14/18/5
f 62/19/6 61/20/6 55/21/6 51/22/6
f 60/23/7 59/24/7 52/25/7 53/26/7
f 57/27/8 58/28/8 56/29/8 54/30/8
f 3/31/9 10/32/9 13/33/9 1/34/9
f 10/32/10 9/15/10 14/18/10 13/33/10
f 44/10/4 6/9/4 15/35/4 45/36/4
f 45/36/4 15/35/4 16/12/4 46/11/4
f 42/4/2 4/3/2 11/37/2 47/38/2
f 47/38/2 11/37/2 12/6/2 48/5/2
f 38/39/11 30/40/11 32/41/11 39/42/11
f 30/40/12 29/43/12 31/44/12 32/41/12
f 33/45/13 20/46/13 30/40/13 38/39/13
f 20/46/14 19/47/14 29/43/14 30/40/14
f 36/48/15 26/49/15 28/50/15 37/51/15
f 26/49/16 25/52/16 27/53/16 28/50/16
f 35/54/15 24/55/15 26/49/15 36/48/15
f 24/55/16 23/56/16 25/52/16 26/49/16
f 37/51/17 28/50/17 17/57/17 40/58/17
f 28/50/18 27/53/18 18/59/18 17/57/18
f 34/60/19 22/61/19 24/55/19 35/54/19
f 22/61/20 21/62/20 23/56/20 24/55/20
f 39/42/11 32/41/11 22/61/11 34/60/11
f 32/41/12 31/44/12 21/62/12 22/61/12
f 40/63/21 17/64/21 20/46/21 33/45/21
f 17/64/22 18/65/22 19/47/22 20/46/22
f 1/66/23 40/63/23 33/45/23 3/67/23
f 9/68/24 39/42/24 34/60/24 7/16/24
f 7/16/25 34/60/25 35/54/25 5/17/25
f 13/69/26 37/51/26 40/58/26 1/70/26
f 5/17/27 35/54/27 36/48/27 14/71/27
f 14/71/28 36/48/28 37/51/28 13/69/28
f 3/67/29 33/45/29 38/39/29 10/72/29
f 10/72/30 38/39/30 39/42/30 9/68/30
f 29/43/31 47/38/31 48/5/31 31/44/31
f 19/47/31 42/4/31 47/38/31 29/43/31
f 25/52/32 45/36/32 46/11/32 27/53/32
f 23/56/32 44/10/32 45/36/32 25/52/32
f 27/53/32 46/11/32 41/14/32 18/59/32
f 21/62/33 43/8/33 44/10/33 23/56/33
f 31/44/31 48/5/31 43/8/31 21/62/31
f 18/65/34 41/1/34 42/4/34 19/47/34
f 55/73/35 50/74/35 49/75/35 54/76/35
f 52/25/35 51/77/35 56/78/35 53/26/35
f 51/77/35 55/73/35 54/76/35 56/78/35
f 64/79/36 63/80/36 49/81/36 50/82/36
f 63/83/8 57/27/8 54/30/8 49/84/8
f 58/28/8 60/23/8 53/26/8 56/29/8
f 59/24/6 62/19/6 51/22/6 52/25/6
f 61/20/6 64/79/6 50/82/6 55/21/6
f 11/37/37 4/3/37 64/79/37 61/20/37
f 8/7/37 12/6/37 62/19/37 59/24/37
f 15/35/38 6/9/38 60/23/38 58/28/38
f 2/13/38 16/12/38 57/27/38 63/83/38
f 4/3/39 2/2/39 63/80/39 64/79/39
f 16/12/38 15/35/38 58/28/38 57/27/38
f 6/9/40 8/7/40 59/24/40 60/23/40
f 12/6/37 11/37/37 61/20/37 62/19/37
