# Blender v2.90.0 OBJ File: 'environment.blend'
# www.blender.org
mtllib trashcan-hinged.mtl
o Cube.034_Cube.022
v 2.983407 0.588957 0.313265
v 2.983407 0.620663 0.319196
v 2.983407 0.581180 0.354844
v 2.983407 0.612886 0.360775
v 2.757621 0.588957 0.313265
v 2.757621 0.620663 0.319196
v 2.757621 0.581180 0.354844
v 2.757621 0.612886 0.360775
v 2.782883 0.581180 0.354844
v 2.958145 0.581180 0.354844
v 2.958145 0.612886 0.360775
v 2.782883 0.612886 0.360775
v 2.958145 0.588957 0.313265
v 2.782883 0.588957 0.313265
v 2.782883 0.620663 0.319196
v 2.958145 0.620663 0.319196
v 2.983407 0.516118 0.342675
v 2.983407 0.523895 0.301096
v 2.958145 0.516118 0.342675
v 2.757621 0.523895 0.301096
v 2.757621 0.516118 0.342675
v 2.782883 0.523895 0.301096
v 2.782883 0.516118 0.342675
v 2.958145 0.523895 0.301096
vt 0.375000 0.000000
vt 0.625000 0.000000
vt 0.625000 0.250000
vt 0.375000 0.250000
vt 0.375000 0.416667
vt 0.625000 0.416667
vt 0.625000 0.500000
vt 0.375000 0.500000
vt 0.625000 0.750000
vt 0.375000 0.750000
vt 0.375000 0.916667
vt 0.625000 0.916667
vt 0.625000 1.000000
vt 0.375000 1.000000
vt 0.375000 1.000000
vt 0.375000 0.916667
vt 0.791667 0.500000
vt 0.875000 0.500000
vt 0.875000 0.750000
vt 0.791667 0.750000
vt 0.708333 0.500000
vt 0.708333 0.750000
vt 0.375000 0.750000
vt 0.375000 0.500000
vt 0.208333 0.500000
vt 0.291667 0.500000
vt 0.291667 0.750000
vt 0.208333 0.750000
vt 0.625000 0.833333
vt 0.375000 0.833333
vt 0.625000 0.333333
vt 0.375000 0.333333
vt 0.291667 0.500000
vt 0.291667 0.750000
vt 0.125000 0.500000
vt 0.208333 0.500000
vt 0.208333 0.750000
vt 0.125000 0.750000
vt 0.375000 0.416667
vt 0.375000 0.833333
vt 0.375000 0.333333
vt 0.375000 0.250000
vt 0.375000 0.000000
vn 1.0000 -0.0000 0.0000
vn 0.0000 -0.1839 0.9830
vn -1.0000 0.0000 0.0000
vn 0.0000 0.1839 -0.9830
vn 0.0000 0.9830 0.1839
vn 0.0000 -0.9830 -0.1839
usemtl ACUnity
s off
f 1/1/1 2/2/1 4/3/1 3/4/1
f 9/5/2 12/6/2 8/7/2 7/8/2
f 7/8/3 8/7/3 6/9/3 5/10/3
f 13/11/4 16/12/4 2/13/4 1/14/4
f 13/11/4 1/14/4 18/15/4 24/16/4
f 11/17/5 4/18/5 2/19/5 16/20/5
f 8/7/5 12/21/5 15/22/5 6/9/5
f 12/21/5 11/17/5 16/20/5 15/22/5
f 7/8/3 5/10/3 20/23/3 21/24/3
f 10/25/6 9/26/6 14/27/6 13/28/6
f 5/10/4 6/9/4 15/29/4 14/30/4
f 14/30/4 15/29/4 16/12/4 13/11/4
f 3/4/2 4/3/2 11/31/2 10/32/2
f 10/32/2 11/31/2 12/6/2 9/5/2
f 23/33/6 21/24/6 20/23/6 22/34/6
f 17/35/6 19/36/6 24/37/6 18/38/6
f 14/27/1 9/26/1 23/33/1 22/34/1
f 9/5/2 7/8/2 21/24/2 23/39/2
f 5/10/4 14/30/4 22/40/4 20/23/4
f 3/4/2 10/32/2 19/41/2 17/42/2
f 10/25/3 13/28/3 24/37/3 19/36/3
f 1/1/1 3/4/1 17/42/1 18/43/1
o TrashCan-Hinge_Cylinder.028
v 2.912946 -0.739905 0.379151
v 2.644846 -0.739905 0.268100
v 2.533796 -0.739905 -0.000000
v 2.644846 -0.739905 -0.268100
v 2.912946 -0.739905 -0.379151
v 3.181046 -0.739905 -0.268100
v 3.292097 -0.739905 0.000000
v 3.181046 -0.739905 0.268100
v 2.912946 0.354327 0.577275
v 2.504751 0.354327 0.408195
v 2.335671 0.354327 -0.000000
v 2.504751 0.354327 -0.408195
v 2.912946 0.354327 -0.577275
v 3.321142 0.354327 -0.408195
v 3.490222 0.354327 0.000000
v 3.321142 0.354327 0.408195
v 2.912946 0.354327 0.502511
v 2.557618 0.354327 0.355329
v 2.410436 0.354327 -0.000000
v 2.557618 0.354327 -0.355329
v 2.912946 0.354327 -0.502511
v 3.268275 0.354327 -0.355329
v 3.415457 0.354327 0.000000
v 3.268275 0.354327 0.355329
v 2.912946 -0.571850 0.339467
v 2.672907 -0.571850 0.240040
v 2.573479 -0.571850 -0.000000
v 2.672907 -0.571850 -0.240040
v 2.912946 -0.571850 -0.339467
v 3.152986 -0.571850 -0.240040
v 3.252414 -0.571850 0.000000
v 3.152986 -0.571850 0.240040
vt 0.750000 0.490000
vt 0.919706 0.419706
vt 0.990000 0.250000
vt 0.919706 0.080294
vt 0.750000 0.010000
vt 0.580294 0.080294
vt 0.510000 0.250000
vt 0.580294 0.419706
vt 0.125000 0.500000
vt 0.125000 0.960227
vt 0.000000 0.960227
vt 0.000000 0.500000
vt 0.250000 0.500000
vt 0.250000 0.960227
vt 0.375000 0.500000
vt 0.375000 0.960227
vt 0.500000 0.500000
vt 0.500000 0.960227
vt 0.625000 0.500000
vt 0.625000 0.960227
vt 0.750000 0.500000
vt 0.750000 0.960227
vt 0.875000 0.500000
vt 0.875000 0.960227
vt 1.000000 0.500000
vt 1.000000 0.960227
vt 0.375000 0.960227
vt 0.250000 0.960227
vt 0.125000 0.960227
vt 0.000000 0.960227
vt 1.000000 0.960227
vt 0.875000 0.960227
vt 0.750000 0.960227
vt 0.625000 0.960227
vt 0.500000 0.960227
vt 0.750000 0.960227
vt 0.625000 0.960227
vt 0.500000 0.960227
vt 0.375000 0.960227
vt 0.250000 0.960227
vt 0.125000 0.960227
vt 0.875000 0.960227
vt 0.000000 0.960227
vt 1.000000 0.960227
vn 0.0000 -1.0000 0.0000
vn 0.3774 -0.1650 0.9112
vn 0.9112 -0.1650 0.3774
vn 0.9112 -0.1650 -0.3774
vn 0.3774 -0.1650 -0.9112
vn -0.3774 -0.1650 -0.9112
vn -0.9112 -0.1650 -0.3774
vn -0.9112 -0.1650 0.3774
vn -0.3774 -0.1650 0.9112
vn 0.0000 1.0000 -0.0000
vn 0.9119 0.1605 0.3777
vn -0.3777 0.1605 0.9119
vn -0.9119 0.1605 -0.3777
vn 0.9119 0.1605 -0.3777
vn 0.3777 0.1605 0.9119
vn -0.9119 0.1605 0.3777
vn -0.3777 0.1605 -0.9119
vn 0.3777 0.1605 -0.9119
usemtl ACUnity
s off
f 25/44/7 26/45/7 27/46/7 28/47/7 29/48/7 30/49/7 31/50/7 32/51/7
f 32/52/8 40/53/8 33/54/8 25/55/8
f 31/56/9 39/57/9 40/53/9 32/52/9
f 30/58/10 38/59/10 39/57/10 31/56/10
f 29/60/11 37/61/11 38/59/11 30/58/11
f 28/62/12 36/63/12 37/61/12 29/60/12
f 27/64/13 35/65/13 36/63/13 28/62/13
f 26/66/14 34/67/14 35/65/14 27/64/14
f 25/68/15 33/69/15 34/67/15 26/66/15
f 39/57/16 38/59/16 46/70/16 47/71/16
f 33/54/16 40/53/16 48/72/16 41/73/16
f 34/67/16 33/69/16 41/74/16 42/75/16
f 36/63/16 35/65/16 43/76/16 44/77/16
f 38/59/16 37/61/16 45/78/16 46/70/16
f 40/53/16 39/57/16 47/71/16 48/72/16
f 35/65/16 34/67/16 42/75/16 43/76/16
f 37/61/16 36/63/16 44/77/16 45/78/16
f 44/77/17 43/76/17 51/79/17 52/80/17
f 46/70/18 45/78/18 53/81/18 54/82/18
f 48/72/19 47/71/19 55/83/19 56/84/19
f 43/76/20 42/75/20 50/85/20 51/79/20
f 45/78/21 44/77/21 52/80/21 53/81/21
f 47/71/22 46/70/22 54/82/22 55/83/22
f 41/73/23 48/72/23 56/84/23 49/86/23
f 42/75/24 41/74/24 49/87/24 50/85/24
o TrashCan-Hinge.001_Cylinder.029
v 2.865077 0.246305 0.857978
v 2.456881 0.277391 0.691780
v 2.287801 0.352441 0.290543
v 2.456881 0.427490 -0.110694
v 2.865077 0.458577 -0.276892
v 3.273272 0.427490 -0.110694
v 3.442352 0.352441 0.290543
v 3.273272 0.277391 0.691780
v 2.404287 0.350482 0.758957
v 2.865077 0.315390 0.946569
v 2.865077 0.225587 0.912353
v 2.213422 0.435201 0.306023
v 2.404287 0.519921 -0.146911
v 2.865077 0.555013 -0.334523
v 3.325866 0.519921 -0.146911
v 3.516731 0.435201 0.306023
v 3.325866 0.350482 0.758957
v 2.416394 0.259757 0.729671
v 2.230544 0.342250 0.288637
v 2.416394 0.424744 -0.152397
v 2.865077 0.458914 -0.335079
v 3.313759 0.424744 -0.152397
v 3.499609 0.342250 0.288637
v 3.313759 0.259757 0.729671
v 2.470212 0.459890 0.712353
v 2.865077 0.429819 0.873123
v 2.306654 0.532489 0.324220
v 2.470212 0.605087 -0.063913
v 2.865077 0.635159 -0.224682
v 3.259941 0.605087 -0.063913
v 3.423498 0.532489 0.324220
v 3.259941 0.459890 0.712353
v 2.432176 0.443323 0.747950
v 3.297977 0.443323 0.747950
v 2.865077 0.410356 0.924207
v 2.252862 0.522915 0.322429
v 2.432176 0.602507 -0.103092
v 2.865077 0.635475 -0.279348
v 3.297977 0.602507 -0.103091
v 3.477290 0.522915 0.322429
vt 0.125000 0.960227
vt 0.250000 0.960227
vt 0.250000 0.960227
vt 0.125000 0.960227
vt 0.000000 0.960227
vt 0.000000 0.960227
vt 0.875000 0.960227
vt 1.000000 0.960227
vt 1.000000 0.960227
vt 0.875000 0.960227
vt 0.750000 1.000000
vt 0.875000 1.000000
vt 0.875000 1.000000
vt 0.750000 1.000000
vt 0.750000 0.960227
vt 0.750000 0.960227
vt 0.500000 1.000000
vt 0.625000 1.000000
vt 0.625000 1.000000
vt 0.500000 1.000000
vt 0.250000 1.000000
vt 0.375000 1.000000
vt 0.375000 1.000000
vt 0.250000 1.000000
vt 0.000000 1.000000
vt 0.125000 1.000000
vt 0.125000 1.000000
vt 0.000000 1.000000
vt 1.000000 1.000000
vt 0.625000 0.960227
vt 0.500000 0.960227
vt 0.375000 0.960227
vt 0.375000 0.960227
vt 0.500000 0.960227
vt 0.625000 0.960227
vt 1.000000 1.000000
vt 0.080294 0.080294
vt 0.010000 0.250000
vt 0.010000 0.250000
vt 0.080294 0.080294
vt 0.250000 0.490000
vt 0.419706 0.419706
vt 0.419706 0.419706
vt 0.250000 0.490000
vt 0.080294 0.419706
vt 0.250000 0.010000
vt 0.419706 0.080294
vt 0.490000 0.250000
vt 0.080294 0.419706
vt 0.419706 0.080294
vt 0.490000 0.250000
vt 0.250000 0.010000
vn -0.1777 -0.9511 -0.2528
vn -0.0736 -0.9319 -0.3551
vn 0.0736 -0.9319 -0.3551
vn -0.8553 0.3065 0.4177
vn 0.1777 -0.9511 -0.2528
vn -0.3543 0.5289 -0.7712
vn 0.8553 0.4367 -0.2787
vn 0.3543 0.2143 0.9102
vn -0.3774 -0.3297 0.8654
vn -0.9112 -0.2316 0.3407
vn -0.9112 -0.0928 -0.4013
vn -0.3774 0.0054 -0.9260
vn 0.3774 0.0054 -0.9260
vn 0.9112 -0.0928 -0.4013
vn 0.9112 -0.2316 0.3407
vn 0.3774 -0.3297 0.8654
vn -0.8553 0.4367 -0.2787
vn -0.1777 -0.9781 -0.1081
vn 0.3543 0.5289 -0.7712
vn 0.8553 0.3065 0.4178
vn -0.0736 -0.9973 -0.0058
vn 0.0736 -0.9973 -0.0058
vn -0.3543 0.2143 0.9102
vn 0.1777 -0.9781 -0.1081
vn 0.1777 0.9781 0.1081
vn -0.0736 0.9319 0.3551
vn -0.0000 0.9830 0.1839
vn 0.0736 0.9319 0.3551
vn -0.1777 0.9781 0.1081
vn -0.0736 0.9973 0.0058
vn -0.1777 0.9511 0.2528
vn 0.1777 0.9511 0.2528
vn 0.0736 0.9973 0.0058
usemtl ACUnity
s off
f 64/88/25 63/89/25 79/90/25 80/91/25
f 57/92/26 64/88/26 80/91/26 67/93/26
f 58/94/27 57/95/27 67/96/27 74/97/27
f 68/98/28 65/99/28 89/100/28 92/101/28
f 59/102/29 58/94/29 74/97/29 75/103/29
f 70/104/30 69/105/30 93/106/30 94/107/30
f 72/108/31 71/109/31 95/110/31 96/111/31
f 66/112/32 73/113/32 90/114/32 91/115/32
f 67/96/33 66/116/33 65/99/33 74/97/33
f 74/97/34 65/99/34 68/98/34 75/103/34
f 75/103/35 68/98/35 69/105/35 76/117/35
f 76/117/36 69/105/36 70/104/36 77/118/36
f 77/118/37 70/104/37 71/109/37 78/119/37
f 78/119/38 71/109/38 72/108/38 79/90/38
f 79/90/39 72/108/39 73/113/39 80/91/39
f 80/91/40 73/113/40 66/112/40 67/93/40
f 69/105/41 68/98/41 92/101/41 93/106/41
f 63/89/42 62/120/42 78/119/42 79/90/42
f 71/109/43 70/104/43 94/107/43 95/110/43
f 73/113/44 72/108/44 96/111/44 90/114/44
f 62/120/45 61/121/45 77/118/45 78/119/45
f 61/121/46 60/122/46 76/117/46 77/118/46
f 65/99/47 66/116/47 91/123/47 89/100/47
f 60/122/48 59/102/48 75/103/48 76/117/48
f 86/124/49 87/125/49 96/126/49 95/127/49
f 82/128/50 81/129/50 89/130/50 91/131/50
f 81/129/51 82/128/51 88/132/51 87/125/51 86/124/51 85/133/51 84/134/51 83/135/51
f 88/132/52 82/128/52 91/131/52 90/136/52
f 83/135/53 84/134/53 93/137/53 92/138/53
f 84/134/54 85/133/54 94/139/54 93/137/54
f 81/129/55 83/135/55 92/138/55 89/130/55
f 87/125/56 88/132/56 90/136/56 96/126/56
f 85/133/57 86/124/57 95/127/57 94/139/57
