# Blender v2.90.0 OBJ File: 'environment.blend'
# www.blender.org
mtllib Road.mtl
o Road_Plane.037
v 4.420467 0.000000 -9.000000
v -4.420467 0.000000 -9.000000
v 4.420467 0.000000 9.000000
v -4.420467 0.000000 9.000000
v 4.420467 0.172527 9.000000
v 4.420467 0.172527 -9.000000
v -4.420467 0.172527 -9.000000
v -4.420467 0.172527 9.000000
vt 0.000000 0.000000
vt 1.000000 0.000000
vt 1.000000 1.000000
vt 0.000000 1.000000
vt 1.000000 1.000000
vt 0.000000 1.000000
vt 0.000000 0.000000
vt 1.000000 0.000000
vn 0.0000 1.0000 0.0000
vn 0.0000 0.0000 1.0000
vn 0.0000 0.0000 -1.0000
vn -1.0000 0.0000 0.0000
vn 1.0000 0.0000 0.0000
usemtl MainRoad
s off
f 6/1/1 7/2/1 8/3/1 5/4/1
f 4/5/2 3/6/2 5/4/2 8/3/2
f 1/7/3 2/8/3 7/2/3 6/1/3
f 2/8/4 4/5/4 8/3/4 7/2/4
f 3/6/5 1/7/5 6/1/5 5/4/5
o Plane.023_Plane.038
v 4.420467 0.000000 -9.000000
v -4.420467 0.000000 -9.000000
v 4.420467 0.000000 9.000000
v -4.420467 0.000000 9.000000
v 4.420467 0.172527 9.000000
v 4.420467 0.172527 -9.000000
v -4.420467 0.172527 -9.000000
v -4.420467 0.172527 9.000000
v 4.706183 0.000000 9.000000
v 4.706183 0.000000 -9.000000
v -4.706183 0.000000 -9.000000
v -4.706183 0.000000 9.000000
v 4.706183 0.172527 9.000000
v 4.706183 0.172527 -9.000000
v -4.706183 0.172527 -9.000000
v -4.706183 0.172527 9.000000
v 4.420467 0.344436 9.000000
v 4.475074 0.356789 8.888822
v 4.475074 0.356789 -8.888822
v 4.420467 0.344436 -9.000000
v -4.420467 0.344436 -9.000000
v -4.475074 0.356789 -8.888822
v -4.475074 0.356789 8.888822
v -4.420467 0.344436 9.000000
v 4.651576 0.356789 8.888822
v 4.706183 0.344436 9.000000
v 4.706183 0.344436 -9.000000
v 4.651576 0.356789 -8.888822
v -4.651576 0.356789 -8.888822
v -4.706183 0.344436 -9.000000
v -4.706183 0.344436 9.000000
v -4.651576 0.356789 8.888822
v 27.395046 0.000000 9.000000
v 27.395046 0.000000 -9.000000
v -27.395046 0.000000 -9.000000
v -27.395046 0.000000 9.000000
v 27.395046 0.172527 9.000000
v 27.395046 0.172527 -9.000000
v -27.395046 0.172527 -9.000000
v -27.395046 0.172527 9.000000
v 27.395046 0.344436 9.000000
v 27.395046 0.344436 -9.000000
v -27.395046 0.344436 -9.000000
v -27.395046 0.344436 9.000000
vt 1.000000 0.000000
vt 1.000000 0.000000
vt 1.000000 1.000000
vt 1.000000 1.000000
vt 0.000000 1.000000
vt 0.000000 1.000000
vt 0.000000 0.000000
vt 0.000000 0.000000
vt 1.000000 0.000000
vt 1.000000 0.000000
vt 1.000000 0.000000
vt 1.000000 0.000000
vt 0.000000 0.000000
vt 0.000000 0.000000
vt 0.000000 0.000000
vt 0.000000 0.000000
vt 1.000000 1.000000
vt 0.000000 0.000000
vt 0.000000 1.000000
vt 1.000000 1.000000
vt 1.000000 0.000000
vt 1.000000 0.000000
vt 1.000000 1.000000
vt 1.000000 1.000000
vt 1.000000 1.000000
vt 1.000000 1.000000
vt 0.000000 1.000000
vt 0.000000 0.000000
vt 0.000000 1.000000
vt 0.000000 1.000000
vt 0.000000 1.000000
vt 0.000000 1.000000
vt 0.000000 0.000000
vt 1.000000 1.000000
vt 1.000000 0.000000
vt 0.000000 1.000000
vt 0.000000 0.006177
vt 0.000000 0.993823
vt 0.000000 0.993823
vt 0.000000 0.006177
vt 1.000000 0.993823
vt 1.000000 0.006177
vt 1.000000 0.006177
vt 1.000000 0.993823
vn 1.0000 0.0000 0.0000
vn -1.0000 0.0000 0.0000
vn 0.0000 0.0000 -1.0000
vn 0.0000 -1.0000 0.0000
vn 0.0000 1.0000 0.0000
vn 0.0000 0.0000 1.0000
vn -0.2206 0.9754 0.0000
vn 0.2206 0.9754 0.0000
vn 0.0000 0.9939 -0.1104
vn 0.0000 0.9939 0.1104
usemtl SideWalk
s off
f 10/9/6 15/10/6 16/11/6 12/12/6
f 11/13/7 13/14/7 14/15/7 9/16/7
f 23/17/8 19/18/8 43/19/8 47/20/8
f 22/21/8 35/22/8 50/23/8 46/24/8
f 10/9/9 12/12/9 20/25/9 19/18/9
f 11/13/9 9/16/9 18/26/9 17/27/9
f 39/28/10 38/29/10 51/30/10 52/31/10
f 20/25/11 24/32/11 48/33/11 44/34/11
f 43/19/7 44/34/7 48/33/7 47/20/7
f 41/35/6 42/36/6 46/24/6 45/37/6
f 47/20/7 48/33/7 52/31/7 51/30/7
f 45/37/6 46/24/6 50/23/6 49/38/6
f 24/32/11 39/28/11 52/31/11 48/33/11
f 17/27/9 18/26/9 42/36/9 41/35/9
f 18/26/8 22/21/8 46/24/8 42/36/8
f 21/39/11 17/27/11 41/35/11 45/37/11
f 38/29/8 23/17/8 47/20/8 51/30/8
f 19/18/9 20/25/9 44/34/9 43/19/9
f 35/22/10 34/40/10 49/38/10 50/23/10
f 34/40/11 21/39/11 45/37/11 49/38/11
usemtl Curb
f 22/21/8 14/15/8 28/41/8 35/22/8
f 15/10/8 10/9/8 19/18/8 23/17/8
f 13/14/11 11/13/11 17/27/11 21/39/11
f 24/32/11 16/11/11 32/42/11 39/28/11
f 9/16/8 14/15/8 22/21/8 18/26/8
f 12/12/11 16/11/11 24/32/11 20/25/11
f 15/10/8 23/17/8 38/29/8 29/43/8
f 13/14/11 21/39/11 34/40/11 25/44/11
f 27/45/10 26/46/10 33/47/10 36/48/10
f 31/49/10 30/50/10 37/51/10 40/52/10
f 16/11/6 15/10/6 29/43/6 32/42/6
f 26/46/12 27/45/12 28/41/12 25/44/12
f 30/50/13 31/49/13 32/42/13 29/43/13
f 34/40/13 35/22/13 36/48/13 33/47/13
f 38/29/12 39/28/12 40/52/12 37/51/12
f 29/43/14 38/29/14 37/51/14 30/50/14
f 39/28/15 32/42/15 31/49/15 40/52/15
f 33/47/15 26/46/15 25/44/15 34/40/15
f 35/22/14 28/41/14 27/45/14 36/48/14
f 14/15/7 13/14/7 25/44/7 28/41/7
